<svg width="73" height="16" viewBox="0 0 73 16" fill="none" xmlns="http://www.w3.org/2000/svg">
<g clip-path="url(#clip0_18_688)">
<path d="M1.03996 7.23001C3.14996 7.30001 5.26997 7.35001 7.37997 7.39001C5.35997 6.16001 3.35996 4.90001 1.46996 3.51001C0.509964 2.80001 1.31997 1.30001 2.41997 1.88001C5.53997 3.52001 8.50996 5.54001 11.48 7.45001C13.19 7.47001 14.91 7.46001 16.62 7.46001C13.84 5.33001 10.92 3.45001 7.85996 1.70001C6.82996 1.11001 7.73997 -0.429985 8.77996 0.120015C12.64 2.16001 16.21 4.69001 19.56 7.47001C27.62 7.47001 35.68 7.36001 43.75 7.32001C43.88 6.92001 44.1 6.55001 44.42 6.24001C45.7 4.99001 48.04 5.22001 49.05 6.68001C49.19 6.88001 49.29 7.09001 49.37 7.31001C51.78 7.31001 54.2 7.31001 56.61 7.33001C56.33 5.54001 56.29 3.72001 56.51 1.88001C56.57 1.34001 57.08 0.700015 57.71 0.960015C60.06 1.92001 62.44 2.82001 64.81 3.71001C65.05 3.49001 65.4 3.69001 65.47 3.96001C67.6 4.76002 69.72 5.56001 71.83 6.41001C72.48 6.67001 72.8 7.66002 72.04 8.05002C68.31 9.96002 64.62 12.43 60.69 13.87C59.92 14.15 59.61 13.06 60.17 12.64C61.52 11.65 62.99 10.78 64.5 9.97002C63.82 9.32002 63.12 8.72002 62.4 8.14002C61.43 9.09002 60.36 9.95002 59.24 10.64C59.4 11.28 59.59 11.92 59.8 12.56C60.05 13.34 58.84 13.87 58.47 13.12C58.18 12.54 57.92 11.94 57.69 11.34C57.31 11.25 57.09 10.76 57.37 10.43C57.22 9.97002 57.08 9.50002 56.96 9.04002C54.4 9.26002 51.83 9.43001 49.26 9.57001C48.84 10.48 48 11.19 46.94 11.28H46.93C46.19 11.39 45.42 11.26 44.8 10.78C44.46 10.52 44.2 10.19 44 9.82001C35.86 10.11 27.68 10.09 19.52 9.92002C16.66 11.89 13.77 13.84 10.8 15.63C10.2 15.99 9.44996 15.09 10.03 14.63C12.12 12.97 14.29 11.4 16.47 9.85002C15.08 9.82002 13.69 9.78001 12.3 9.74002C12.22 9.79002 12.14 9.83002 12.04 9.86001C8.74997 10.87 5.70997 12.33 2.77997 14.12C2.04996 14.57 1.13997 13.46 1.83997 12.9C3.49997 11.58 5.25996 10.49 7.12997 9.59002C5.09997 9.52002 3.07996 9.46002 1.05997 9.39002C-0.340034 9.36002 -0.340034 7.18001 1.03996 7.23001ZM65.24 9.48001C65.27 9.50002 65.27 9.53001 65.29 9.55002C66.65 8.83002 68.03 8.15001 69.38 7.44001C67.76 6.86001 66.15 6.25001 64.54 5.63001C64.12 6.22002 63.66 6.81001 63.16 7.36001C63.89 8.06001 64.59 8.78001 65.24 9.48001ZM58.94 9.34002C59.82 8.72002 60.64 8.07001 61.42 7.37001C60.42 6.60001 59.4 5.86001 58.39 5.07001C58.46 6.51002 58.65 7.93002 58.94 9.34002ZM58.37 3.94001C58.44 3.94001 58.5 3.95001 58.57 3.99001C59.88 4.64001 61.12 5.56001 62.28 6.57001C62.7 6.15001 63.11 5.71001 63.52 5.25001C61.8 4.58001 60.08 3.91001 58.36 3.24001C58.35 3.48001 58.37 3.71001 58.37 3.94001Z" fill="#B4AFA6"/>
</g>
<defs>
<clipPath id="clip0_18_688">
<rect width="72.48" height="15.71" fill="white" transform="matrix(-1 0 0 1 72.48 0)"/>
</clipPath>
</defs>
</svg>
