<svg width="454" height="448" viewBox="0 0 454 448" fill="none" xmlns="http://www.w3.org/2000/svg">
<path d="M452.489 261.761C442.43 259.092 437.761 252.895 429.979 246.946C428.604 245.883 427.228 245.047 425.829 244.391C438.686 240.93 444.753 222.179 449.737 210.983C450.391 209.513 449.286 207.297 447.414 207.975C436.859 211.73 429.844 199.38 420.146 196.44C430.701 191.192 436.024 177.305 438.505 165.86C438.911 164.028 437.152 162.897 435.573 163.598C426.822 167.488 418.86 159.482 410.199 158.057C416.041 151.52 421.702 144.848 427.431 138.22C428.265 137.248 428.153 135.868 427.047 135.167C414.101 126.753 399.441 118.429 383.901 123.451C383.923 123.27 383.901 123.111 383.878 122.953C393.667 115.738 400.05 105.379 402.779 93.4589C403.049 92.3054 402.237 90.9257 400.929 91.0161C387.667 91.8983 370.233 80.8153 358.053 88.8448C361.752 79.413 365.09 69.8454 368.067 60.1422C368.496 58.7625 367.368 57.7447 366.128 57.5863C350.994 55.6412 334.732 54.5781 322.169 64.2587C322.033 64.1683 321.876 64.1004 321.718 64.0552C324.808 54.5555 328.529 45.4403 333.356 36.6644C334.19 35.1264 332.815 33.3622 331.146 33.7693C316.643 37.2525 296.908 31.7789 284.954 42.3416C282.473 32.367 283.127 22.528 287.39 12.9153C288.269 10.9249 286.488 9.07016 284.48 9.99751C275.706 14.0688 265.196 10.4046 256.964 16.0818C252.295 19.2936 248.664 24.4506 245.754 29.8111C242.777 20.0174 226.335 12.0558 226.041 2.0585C225.996 0.633551 224.372 -0.51998 223.064 0.339514C212.802 7.23808 201.75 15.5164 199.314 27.7076C195.818 19.2258 183.255 14.2724 179.399 6.31074C178.835 5.13459 176.76 5.06673 176.218 6.31074C172.068 15.9914 159.844 29.223 163.362 40.4869C154.634 31.6206 138.778 32.661 130.884 22.3018C130.004 21.1483 128.222 20.8543 127.388 22.3018C120.757 33.905 119.268 47.0915 123.824 59.4637C113.878 54.3745 103.638 50.0997 93.0374 46.5712C91.6165 46.0963 90.5113 47.3403 90.376 48.6069C89.4061 56.953 84.5118 64.2813 84.8501 72.8311C84.9854 75.8393 85.6621 78.7118 86.7898 81.3808C77.7454 78.1916 66.8741 81.0867 57.8072 76.6535C56.6795 76.1107 54.8977 76.4726 54.627 77.9428C52.2588 91.8078 50.7702 110.287 63.7165 118.452C63.6714 118.475 63.6488 118.475 63.6037 118.497C53.7023 112.73 41.1845 116.846 30.0877 114.856C28.0352 114.494 26.5015 116.778 28.0127 118.429C35.8617 126.957 31.7116 147.743 40.756 155.682C36.5157 154.46 32.1627 153.827 27.7646 154.935C20.8855 156.654 15.54 161.97 8.18726 162.037C6.49567 162.06 5.70626 163.802 6.38289 165.204C10.8261 174.613 14.4123 191.622 24.0205 197.955C23.0056 198.272 22.0132 198.634 21.0433 199.086C14.0965 202.343 9.78863 212.635 2.07498 213.562C0.293171 213.788 -0.721783 215.711 0.58638 217.158C8.36769 225.685 18.2015 241.36 30.8771 243.328C25.8249 244.843 21.3365 247.67 17.7729 251.922C11.4126 259.567 10.8036 269.927 6.60844 278.68C5.81903 280.331 7.10464 282.095 8.93155 281.711C18.8555 279.607 28.6442 285.782 38.3201 285.556C29.6366 293.337 26.7722 306.387 24.7197 317.674C24.4265 319.325 25.667 320.659 27.336 320.297C38.9516 317.9 51.0634 323.419 62.5662 321.541C59.9048 324.324 57.7621 327.535 56.3412 331.222C53.1835 339.365 55.7096 349.973 49.4846 356.69C48.1764 358.093 49.1237 360.309 51.0183 360.4C65.4081 361.056 79.3242 358.319 92.3382 352.28C92.3607 352.28 92.4059 352.28 92.4284 352.28C87.1055 356.622 83.1585 362.096 80.8579 368.768C77.2041 379.422 80.249 390.143 80.4069 401.045C80.4294 402.967 82.6172 403.668 83.9705 402.515C92.2254 395.458 103.412 395.752 113.111 391.997C116.562 390.663 118.907 388.876 120.87 386.818C120.306 388.786 119.922 390.799 119.719 392.857C118.772 403.035 125.02 411.766 124.23 421.718C124.14 422.917 125.606 424.161 126.779 423.663C137.041 419.411 154.341 415.317 162.19 405.387C161.761 409.549 161.829 413.688 163.047 417.895C165.189 425.359 169.836 431.828 174.369 437.98C175.023 438.862 176.196 439.405 177.211 438.727C187.631 431.964 196.089 422.962 201.795 412.06C201.931 412.06 202.089 412.037 202.224 411.992C201.683 417.963 202.134 424.07 205.494 429.182C210.163 436.307 220.403 438.252 223.448 446.485C224.012 448 226.402 448.747 227.237 446.982C232.402 436.148 245.551 428.232 249.16 416.787C251.212 419.411 253.671 421.74 256.039 423.572C265.399 430.81 277.285 433.276 288.72 434.904C290.141 435.108 291.134 434.384 291.314 432.936C292.239 424.522 292.577 416.131 292.352 407.694C302.794 417.058 318.109 418.529 332.161 419.343C333.378 419.411 334.641 417.941 334.145 416.742C330.672 408.418 336.491 396.295 334.123 387.383C345.941 393.038 359.474 393.852 372.33 390.301C373.683 389.917 374.45 387.881 373.232 386.886C364.481 379.829 366.511 366.733 360.872 357.505C374.586 368.045 391.479 362.028 405.914 355.605C407.876 354.722 406.974 352.076 405.372 351.465C396.666 348.141 394.907 337.894 390.486 330.069C405.17 334.276 419.492 323.306 430.453 313.467C431.626 312.426 431.04 310.21 429.506 309.87C419.266 307.676 418.183 294.309 410.56 288.677C415.996 289.537 421.657 288.949 426.912 286.868C437.919 282.502 442.813 271.148 452.895 265.561C454.564 264.724 454.203 262.214 452.489 261.761ZM444.595 212.77C439.34 226.16 433.092 245.408 415.567 241.292C414.665 241.088 414.079 241.722 414.011 242.423C412.161 242.129 410.267 241.88 408.35 241.654C415.68 239.211 421.544 234.099 422.672 225.075C424.476 210.757 411.237 204.356 399.012 202.637C403.974 201.733 408.914 200.692 413.673 199.312C413.988 199.561 414.372 199.742 414.913 199.72C426.619 199.335 433.227 213.652 444.595 212.77ZM310.689 356.894C320.297 350.742 329.296 343.685 337.506 335.814C337.664 336.04 337.844 336.243 338.002 336.47C337.844 336.899 337.844 337.374 338.092 337.894C342.333 346.263 354.129 368.836 339.919 373.247C333.378 375.283 324.063 371.279 317.32 365.738C315.154 362.752 312.989 359.766 310.689 356.894ZM305.185 390.866C294.359 396.928 282.631 383.561 278.548 374.898C278.368 374.513 278.007 374.378 277.646 374.4C277.533 374.197 277.421 373.993 277.308 373.767C277.285 373.722 277.24 373.699 277.218 373.677C287.999 369.605 298.374 364.494 308.14 358.477C308.298 358.862 308.478 359.246 308.659 359.631C308.659 359.789 308.659 359.947 308.704 360.106C311.704 370.035 317.026 384.239 305.185 390.866ZM340.573 333.529C340.438 333.348 340.258 333.28 340.077 333.235C346.505 326.812 352.392 319.868 357.692 312.449C357.715 312.472 357.715 312.494 357.737 312.494C358.053 312.72 358.369 312.924 358.685 313.15C357.985 313.829 357.782 314.892 358.707 315.706C362.677 319.099 366.985 322.65 369.601 327.264C372.916 333.122 373.413 341.966 366.443 345.472C355.956 350.764 346.595 340.79 340.573 333.529ZM359.451 309.893C365.068 301.705 369.917 292.952 373.954 283.746C374.044 284.334 374.405 284.9 375.104 285.171C384.058 288.7 404.335 298.946 389.968 310.504C383.495 315.706 374.495 315.887 366.669 313.512C364.256 312.245 361.865 311.024 359.451 309.893ZM237.837 378.811C237.544 378.426 237.138 378.178 236.552 378.245C167.896 386.773 104.224 340.609 75.49 279.585C46.1691 217.317 74.1818 141.568 124.884 99.8373C150.867 78.463 184.067 62.8112 217.854 60.391C224.282 59.9386 230.688 60.097 237.048 60.7529C237.477 61.5445 238.695 61.816 239.326 61.0243C264.023 64.0552 287.796 74.7762 308.568 88.2341C363.601 123.926 392.877 187.031 379.074 252.126C364.616 320.275 305.388 369.289 237.837 378.811ZM268.015 405.32C255.994 416.764 246.228 391.251 244.356 383.176C244.311 382.973 244.22 382.814 244.085 382.679C254.595 380.892 264.948 378.178 274.94 374.559C274.962 374.627 274.94 374.694 274.985 374.785C275.007 374.83 275.03 374.875 275.03 374.921C274.173 374.785 273.203 375.147 272.955 376.119C270.609 385.189 275.571 398.104 268.015 405.32ZM224.733 413.688C207.953 417.375 207.366 394.802 208.765 384.194C217.741 384.601 226.786 383.945 235.717 381.955C236.146 382.95 237.138 383.787 238.469 383.583C238.74 383.538 239.01 383.493 239.281 383.448C239.349 383.719 239.416 383.991 239.484 384.262C238.988 384.465 238.582 384.918 238.604 385.664C238.83 396.204 237.341 410.906 224.733 413.688ZM60.604 202.841C58.9575 213.969 58.529 225.301 59.4762 236.655C59.0928 236.203 58.529 235.954 57.8749 236.158C46.5074 239.799 35.0723 231.928 35.997 219.488C36.9443 206.731 49.4395 201.439 60.604 202.841ZM50.3642 197.729C40.1921 195.693 30.629 189.089 38.3878 177.554C45.2218 167.375 58.6192 168.665 69.4228 169.434C65.7915 179.001 62.9948 188.84 61.2355 198.905C61.0551 198.883 60.8746 198.86 60.6942 198.837C60.5814 198.498 60.2882 198.227 59.8371 198.272C58.8898 198.362 57.8974 198.408 56.8599 198.408C54.6721 198.159 52.5069 197.955 50.3642 197.729ZM56.4765 241.925C57.1982 241.857 57.8974 241.79 58.6192 241.722C59.183 241.654 59.589 241.405 59.8822 241.066C60.5814 247.218 61.6866 253.37 63.2203 259.5C64.4608 264.43 66.0622 269.293 67.9116 274.111C67.7086 274.156 67.4831 274.201 67.2801 274.247C66.9192 273.953 66.4681 273.772 65.9043 273.84C56.0028 275.265 37.463 276.147 37.5758 261.309C37.6435 250.407 47.8607 245.454 56.4765 241.925ZM67.8891 277.979C68.3402 277.866 68.7913 277.753 69.2198 277.639C69.2424 277.639 69.2649 277.617 69.2875 277.594C73.2796 287.139 78.4221 296.322 84.3539 305.098C75.4449 308.129 54.6721 315.344 50.4995 302.949C46.6653 291.527 59.0703 282.389 67.8891 277.979ZM86.5417 309.848C86.677 309.735 86.7672 309.622 86.8574 309.509C86.9702 309.418 87.1055 309.35 87.1958 309.282C93.8945 318.624 101.495 327.422 109.592 335.429C109.435 335.52 109.254 335.587 109.096 335.723C108.938 335.859 108.78 335.995 108.6 336.153C108.194 336.017 107.698 336.062 107.224 336.402C98.1798 342.418 85.4816 348.706 75.5802 340.677C61.9572 329.526 77.565 316.656 86.5417 309.848ZM112.953 338.596C118.727 344.069 124.681 349.181 130.749 353.818C133.094 355.605 135.53 357.346 138.011 359.02C136.838 360.513 135.688 361.983 134.515 363.476C127.117 369.176 118.028 374.491 108.916 370.08C93.9847 362.888 106.096 346.557 112.953 338.596ZM71.994 162.965C63.4007 158.894 55.4841 153.103 60.0852 142.314C64.4608 132.046 76.8207 131.39 85.8425 135.257C86.2485 135.438 86.6545 135.416 86.9928 135.303C81.1737 144.101 76.1215 153.352 71.994 162.965ZM108.735 108.432C102.465 114.811 96.6461 121.619 91.3909 128.834C89.4738 127.861 87.5341 126.911 85.5718 126.007C83.0457 124.22 80.6549 122.252 78.9634 119.651C74.9712 113.499 76.0764 106.125 82.8653 102.732C91.9322 98.2087 100.886 103.976 108.735 108.432ZM112.998 75.5905C121.84 66.1813 132.756 76.6535 139.229 83.4616C138.688 83.8009 138.169 84.1402 137.65 84.4795C129.102 90.1114 121.073 96.5576 113.63 103.592C112.818 102.755 111.938 101.986 111.081 101.172C108.6 92.5089 106.254 82.7605 112.998 75.5905ZM150.777 55.9578C160.092 52.7008 167.873 58.5589 172.068 66.3848C162.889 70.0716 154.025 74.5274 145.635 79.5034C138.169 71.9716 140.424 59.5541 150.777 55.9578ZM185.985 43.4047C193.834 42.4547 198.096 51.3889 201.457 57.6994C192.909 59.3279 184.473 61.7029 176.264 64.7337C176.106 64.3718 175.925 64.0325 175.767 63.6933C174.414 55.4828 176.083 44.5808 185.985 43.4047ZM208.697 56.4554C208.877 47.77 211.9 38.112 221.846 36.8002C234.026 35.1943 234.184 46.82 235.379 55.5959C226.47 54.8948 217.538 55.2567 208.697 56.4554ZM274.15 64.8242C275.436 63.0373 276.699 61.16 277.962 59.2375C283.758 54.2388 292.825 51.3211 299.366 53.2436C311.14 56.7042 312.267 69.8228 308.32 79.5261C307.756 80.0915 307.193 80.6796 306.629 81.2224C296.412 74.8215 285.473 69.1895 274.15 64.8242ZM385.344 164.073C382.863 165.046 380.382 166.041 377.946 167.127C373.909 155.817 368.609 144.938 362.09 134.737C362.361 134.624 362.654 134.511 362.925 134.398C363.218 134.488 363.511 134.534 363.872 134.443C373.571 132.114 392.088 131.367 397.862 141.93C403.41 152.131 393.757 159.572 385.344 164.073ZM399.599 168.348C407.064 169.705 415.229 177.056 410.38 185.244C405.553 193.409 394.907 198.656 385.998 201.439C384.713 190.763 382.299 180.29 378.893 170.135C379.48 169.931 380.089 169.75 380.675 169.547C380.991 169.841 381.42 170.022 381.983 169.909C387.803 168.846 393.689 167.262 399.599 168.348ZM360.85 129.286C359.384 130.123 359.948 131.955 361.12 132.498C361.008 132.566 360.872 132.656 360.76 132.724C355.189 124.288 348.761 116.326 341.543 108.93C341.769 108.839 341.994 108.726 342.175 108.5C347.52 101.511 359.181 99.9277 365.338 106.894C371.405 113.77 368.293 124.989 360.85 129.286ZM341.881 102.913C340.821 103.954 339.739 104.994 338.701 106.057C334.596 102.054 330.266 98.2087 325.687 94.6124C320.973 90.8804 315.944 87.3294 310.779 83.9366C319.665 78.4178 330.92 72.2882 340.934 78.8023C349.798 84.5699 347.475 95.6529 341.881 102.913ZM378.285 272.89C381.668 263.186 384.036 253.347 385.502 243.508C385.75 243.554 386.021 243.599 386.291 243.622C385.953 244.617 386.494 245.974 387.915 246.11C398.538 247.127 423.1 255.813 413.695 270.899C408.508 279.223 396.576 279.788 386.179 279.155C383.066 278.341 379.931 277.549 376.796 276.916C377.315 275.581 377.811 274.247 378.285 272.89ZM387.081 239.822C386.63 239.754 386.246 239.867 385.976 240.093C387.464 228.286 387.577 216.48 386.427 204.876C387.577 204.876 388.727 204.854 389.878 204.831C390.126 205.351 390.622 205.736 391.366 205.759C402.598 206.256 422.356 210.147 418.635 226.138C415.319 240.342 398.787 241.88 387.081 239.822ZM433.881 168.144C431.085 179.476 425.987 191.486 414.958 195.241C410.921 195.739 406.839 196.485 402.779 197.39C410.357 192.776 416.582 186.397 415.454 178.436C413.943 167.715 404.786 164.639 395.403 164.774C398.29 163.892 401.2 163.01 404.132 162.196C404.425 162.105 404.651 161.992 404.854 161.834C404.899 161.834 404.944 161.857 404.989 161.834C415.612 160.364 423.709 169.886 433.881 168.144ZM423.123 137.225C417.101 144.146 410.989 151.022 405.147 158.102C404.764 158.17 404.38 158.215 403.997 158.328C403.997 158.328 403.997 158.328 403.974 158.328C403.703 158.26 403.388 158.26 403.049 158.351C400.749 158.939 398.448 159.595 396.17 160.296C401.222 155.637 404.245 149.439 401.628 142.088C398.065 132.068 385.164 129.06 374.022 129.445C376.39 128.291 378.713 127.092 380.946 125.826C381.104 126.504 381.668 127.024 382.547 126.753C397.614 122.003 410.808 129.309 423.123 137.225ZM398.403 94.8612C395.336 105.786 389.178 114.245 380.202 121.415C379.863 121.687 379.728 122.026 379.683 122.365C375.488 124.242 371.225 126.482 367.143 128.857C373.007 122.275 373.954 111.282 367.706 104.542C363.06 99.5432 355.798 98.254 349.55 100.177C352.234 97.9373 355.031 95.7207 357.354 93.1423C368.721 83.8914 385.028 94.2732 398.403 94.8612ZM321.966 67.7193C322.033 67.6741 322.124 67.6515 322.191 67.6062C333.965 58.2423 349.392 59.4184 363.511 61.2279C360.376 71.293 356.903 81.2224 353.181 91.084C353.001 91.5364 353.046 91.9209 353.181 92.2601C351.783 93.4589 350.452 94.7255 349.121 96.0148C350.948 89.7721 350.182 83.0545 345.129 78.1011C336.085 69.28 323.5 72.9894 313.846 79.0058C317.139 75.6357 320.094 71.7454 321.966 67.7193ZM284.3 48.0188C285.36 47.8153 286.239 46.9331 285.811 45.5987C285.811 45.576 285.788 45.5308 285.788 45.5082C298.171 36.7097 313.553 40.4191 327.988 38.3156C323.545 46.9105 319.958 55.7995 317.455 65.2313C317.252 66.0003 317.523 66.611 317.996 66.9955C316.508 69.2574 315.109 71.6097 313.485 73.781C314.929 64.6659 311.997 55.2114 302.524 50.9592C296.592 48.3129 288.337 49.5116 281.751 53.0853C282.653 51.3889 283.555 49.6926 284.3 48.0188ZM244.333 38.9263C249.363 29.879 255.272 18.6829 266.166 16.9639C271.624 16.1044 276.789 16.4211 281.909 15.1997C278.481 25.1065 278.278 35.33 281.548 45.5082L281.526 45.5308C278.413 49.6926 275.706 54.8722 273.383 59.8482C275.052 50.8687 273.744 40.306 263.279 38.6549C256.107 37.5239 249.024 41.0072 243.972 46.3677C244.288 43.8797 244.446 41.3917 244.333 38.9263ZM257.731 42.7035C263.933 41.4369 268.85 44.8296 270.158 50.9592C271.015 54.9852 269.955 59.0339 268.895 62.9695C259.896 59.8482 250.739 57.4959 241.514 56.2745C241.784 55.5733 241.987 54.8269 242.213 54.1031C245.732 48.4712 250.919 44.1059 257.731 42.7035ZM222.5 5.45124C223.312 9.29635 225.32 12.4855 228.274 15.4938C234.003 21.3066 245.258 27.5041 241.198 37.0037C240.77 37.3204 240.431 37.7954 240.431 38.5191C240.431 38.587 240.431 38.6775 240.409 38.7453C240.318 39.0394 240.296 39.3334 240.364 39.6048C240.183 44.332 239.597 48.7652 238.604 53.221C237.995 42.7261 234.274 31.5075 221.35 33.2943C211.764 34.6062 206.69 43.2464 206.239 52.1127C204.863 45.5534 203.487 38.9037 201.637 32.5932C203.036 20.1531 212.599 12.2141 222.5 5.45124ZM178 11.0153C184.248 19.4972 196.833 23.2066 197.014 35.149C197.014 35.8502 197.487 36.3026 198.051 36.4609C198.705 41.3012 200.014 46.232 201.66 50.9592C197.758 44.2189 191.668 38.2251 183.819 40.306C175.564 42.4773 172.474 49.7604 172.61 57.2471C170.986 53.9222 169.407 50.5973 167.964 47.1367C168.73 47.295 169.61 46.5034 169.069 45.6891C160.904 33.43 172.226 21.8495 178 11.0153ZM129.598 26.735C139.409 36.099 156.912 34.7871 163.678 47.1367C163.701 47.1819 163.723 47.1819 163.746 47.2272C164.422 49.7152 165.257 52.2484 166.249 54.7138C160.34 51.0723 152.852 50.3259 146.221 54.171C138.575 58.6042 135.981 67.855 139.139 75.2286C135.936 70.7502 132.079 66.5206 128.2 62.7433C128.29 62.2005 128.087 61.635 127.433 61.2731C127.41 61.2505 127.388 61.2505 127.365 61.2279C123.712 49.5569 124.185 37.6144 129.598 26.735ZM89.9925 64.6885C91.3909 60.1422 93.1953 55.9352 94.1426 51.3663C104.292 54.7817 114.194 58.7399 123.96 63.1504C126.463 66.1134 128.967 69.0764 131.358 72.1299C125.358 68.2395 118.479 66.6563 112.119 71.8359C104.247 78.2594 104.473 88.4829 107.089 97.5981C103.097 94.2506 98.9016 91.084 94.8418 87.9401C95.0222 87.3972 94.9545 86.7865 94.4358 86.2211C93.511 85.2485 92.5637 84.4795 91.5713 83.7557C88.7069 77.7845 87.8724 71.5871 89.9925 64.6885ZM58.3936 81.426C68.5206 84.6378 80.9707 81.0867 89.6993 87.0127C89.6317 87.4198 89.7219 87.8722 90.173 88.2793C95.8567 93.4363 101.518 99.1587 107.653 103.976C97.8866 98.0278 84.1283 93.3911 75.8057 103.728C70.4152 110.445 72.7834 117.276 77.6326 122.659C75.1516 121.687 72.6706 120.782 70.1445 119.968C70.4152 119.357 70.3024 118.61 69.6032 118.249C55.2811 111.259 56.1607 94.9743 58.3936 81.426ZM33.7415 119.402C44.4775 119.764 56.2961 116.394 65.1825 123.564C66.2426 124.423 67.5733 123.722 67.8665 122.75C75.0389 125.645 82.0984 128.721 89.0227 132.249C88.7295 132.679 88.4588 133.131 88.1656 133.561C88.0979 133.199 87.8498 132.86 87.3988 132.634C76.956 127.409 62.2505 129.037 57.0855 140.822C53.567 148.851 56.0254 155.342 61.2806 159.685C57.7395 158.735 54.1534 157.876 50.5898 157.039C50.4544 156.813 50.2514 156.609 49.9357 156.519C34.8016 152.538 39.8313 131.797 33.7415 119.402ZM11.2547 165.905C14.6604 165.362 17.6827 164.005 20.9306 162.332C29.6817 157.808 36.1549 158.079 45.3797 160.793C46.53 161.133 47.2517 160.386 47.4096 159.504C54.6045 161.902 61.9347 164.639 69.31 166.131C69.8739 166.244 70.3701 166.131 70.731 165.905C70.6407 166.109 70.5731 166.335 70.4829 166.539C56.8825 164.503 36.0872 165.159 32.8394 182.145C31.5537 188.795 34.1475 193.68 38.4329 196.824C37.26 196.779 36.0872 196.689 34.9144 196.643C34.4858 196.621 34.1701 196.802 33.922 197.096C32.8394 196.937 31.7567 196.87 30.6741 196.87C18.7428 193.613 15.6528 177.079 11.2547 165.905ZM5.86414 216.774C8.81878 215.62 11.0291 213.585 13.4876 210.848C20.096 203.452 26.682 200.036 36.7638 200.964C37.5307 201.031 38.0043 200.579 38.2073 199.991C40.959 200.421 43.7332 200.805 46.4848 201.167C38.3652 204.221 32.2078 211.843 32.3206 221.524C32.4334 229.87 37.7111 236.565 44.6354 239.301C41.3875 239.663 38.1171 240.048 34.8693 240.455C34.6663 240.478 34.4858 240.545 34.3054 240.636C22.577 238.465 13.6455 225.957 5.86414 216.774ZM11.6381 277.232C13.5552 272.166 14.6604 266.873 16.6452 261.784C20.2765 252.533 27.9225 246.562 37.4856 244.345C37.9367 244.232 38.1848 243.893 38.275 243.508C41.1845 243.305 44.1166 243.056 47.0261 242.807C39.1321 247.014 32.8394 254.275 34.2828 263.842C35.8391 274.156 44.5677 277.323 53.6572 277.798C51.1536 278.635 48.6501 279.517 46.2367 280.512C45.8308 280.218 45.3346 280.082 44.7707 280.286C33.5611 284.086 22.9154 276.803 11.6381 277.232ZM29.4562 315.706C31.9146 303.198 35.3655 291.708 46.124 283.792C49.9357 282.683 53.7474 281.643 57.5591 280.648C49.4169 286.506 43.237 296.028 47.6577 305.55C52.146 315.186 64.8668 314.462 75.3997 311.657C72.5353 313.286 69.6709 314.937 66.8065 316.52C54.221 319.302 41.9965 314.62 29.4562 315.706ZM55.1909 356.057C57.0629 352.642 57.7396 348.887 58.1681 344.703C59.2281 334.14 61.4836 326.201 69.9641 319.121C70.2573 318.873 70.3926 318.556 70.4152 318.239C71.3625 317.855 72.3323 317.425 73.3022 316.995C67.1448 323.555 63.6714 331.969 69.9867 340.315C76.8658 349.385 87.3085 349.294 96.8265 345.879C96.0371 346.512 95.2477 347.145 94.4583 347.779C93.917 347.462 93.2629 347.372 92.5637 347.711C80.6324 353.343 68.2048 356.125 55.1909 356.057ZM119.697 383.041C115.592 387.383 109.615 388.876 104.021 390.233C97.0295 391.93 90.3534 393.309 84.4216 397.064C83.8126 389.396 82.121 381.616 83.587 373.993C85.2335 365.444 90.0151 358.409 96.3078 352.574C96.9844 351.963 96.6912 350.968 96.0597 350.515C98.6986 348.932 101.225 347.123 103.683 345.223C97.9768 353.501 94.9771 363.951 103.841 371.234C111.555 377.567 120.396 375.757 128.335 371.55C127.568 372.614 126.802 373.677 126.057 374.74C125.944 374.898 125.899 375.056 125.854 375.192C123.396 377.522 122.245 380.349 119.697 383.041ZM161.513 396.996C161.107 397.72 161.242 398.421 161.626 398.919C156.573 410.16 139.567 414.57 128.38 418.732C128.019 412.557 125.2 407.197 124.095 400.977C122.561 392.224 124.997 384.646 129.26 377.228C129.44 377.047 129.621 376.866 129.824 376.707C130.252 376.323 130.388 375.825 130.32 375.35C130.41 375.169 130.433 374.988 130.433 374.807C131.651 373.405 132.846 371.98 134.042 370.533C129.463 380.553 128.2 392.563 139.793 398.195C147.98 402.153 156.28 399.597 162.911 394.395C162.415 395.232 161.987 396.114 161.513 396.996ZM143.785 395.888C126.734 391.274 136.004 371.958 141.845 362.3C141.981 362.073 142.026 361.847 142.026 361.644C151.093 367.434 160.814 372.41 170.918 376.187C170.85 376.278 170.805 376.346 170.76 376.459C169.881 378.743 168.978 380.982 168.054 383.199C162.144 391.138 154.769 398.873 143.785 395.888ZM200.081 406.609C194.6 417.805 187.045 427.01 176.715 434.045C173.061 429.069 169.362 423.934 167.219 418.099C164.693 411.155 165.505 404.211 166.114 397.019C166.137 396.838 166.091 396.679 166.046 396.544C166.994 394.847 167.873 393.083 168.663 391.296C167.016 400.117 168.482 409.052 178.203 412.58C190.067 416.9 196.044 405.297 200.803 395.3C200.216 399.054 199.968 402.854 200.081 406.609ZM203.712 383.968C203.284 384.036 202.855 384.239 202.54 384.669C196.924 392.224 193.27 412.082 180.504 409.232C165.956 405.998 172.317 387.406 175.948 377.929C185.015 380.914 194.33 382.95 203.758 383.81C203.735 383.9 203.735 383.945 203.712 383.968ZM225.568 441.622C223.448 438.546 220.516 436.352 217.2 434.067C213.073 431.24 209.509 428.594 207.434 423.912C204.998 418.415 205.607 412.015 205.697 406.156C205.72 405.365 205.021 404.935 204.344 404.912C204.209 404.731 204.028 404.551 203.825 404.415C204.186 400.66 204.75 396.973 205.494 393.309C205.156 404.483 208.517 416.651 221.508 417.33C234.905 418.031 240.521 405.41 241.672 393.784C242.777 399.461 243.589 405.161 244.401 411.065C244.514 411.901 245.145 412.218 245.822 412.195C243.792 424.296 232.041 431.353 225.568 441.622ZM287.548 430.607C278.571 429.227 269.414 427.372 261.632 422.532C256.264 419.207 253.062 415.204 250.175 410.657C250.152 409.391 250.039 408.102 249.769 406.744C249.543 405.591 248.37 405.252 247.423 405.523C247.288 403.42 247.017 401.293 246.656 399.19C250.468 406.858 256.49 413.213 264.835 411.449C279.112 408.418 275.436 388.853 276.248 378.065C279.451 386.207 282.608 394.463 286.217 402.402C286.623 403.284 287.48 403.442 288.269 403.216C288.72 412.354 288.472 421.469 287.548 430.607ZM329.476 415.068C315.989 414.231 302.163 412.422 292.239 403.058C292.216 402.515 292.216 401.972 292.171 401.407C292.081 399.733 290.344 399.167 289.217 399.688C287.886 395.684 286.262 391.681 284.458 387.745C290.029 393.603 297.494 397.494 305.14 394.44C315.222 390.414 317.162 379.422 315.132 369.628C318.041 374.197 321.131 378.653 324.605 382.475C325.033 382.95 325.529 383.063 325.981 383.018C335.882 389.396 327.604 404.596 329.476 415.068ZM367.887 387.202C355.369 389.871 343.28 388.062 331.822 382.679C330.852 381.503 329.589 380.439 327.988 379.535C327.627 379.331 327.266 379.286 326.928 379.286C325.778 377.228 324.402 375.26 322.981 373.315C329.634 376.821 337.122 378.381 342.784 376.097C353.835 371.641 350.926 358.432 346.528 347.62C349.279 351.036 352.121 354.406 354.963 357.663C355.459 358.251 356.046 358.387 356.587 358.274C363.218 366.71 361.211 379.037 367.887 387.202ZM399.869 353.411C387.374 358.726 373.503 362.91 361.572 353.886C360.579 353.139 359.429 353.999 359.181 355.017C359.113 354.926 359.045 354.858 358.978 354.768C358.459 354.202 357.873 354.067 357.309 354.18C355.617 352.076 353.881 349.995 352.144 347.892C357.647 350.968 363.895 351.782 369.939 347.598C381.307 339.727 374.901 327.4 367.368 318.85C372.285 321.903 377.315 324.821 382.299 327.648C382.728 327.897 383.156 327.942 383.562 327.92C390.87 335.497 391.614 347.258 399.869 353.411ZM424.995 312.698C414.462 321.949 401.628 331.132 387.487 325.681C387.036 325.183 386.539 324.708 386.021 324.256C385.502 323.803 384.916 323.668 384.374 323.713C381.262 321.836 378.104 319.958 374.924 318.126C383.359 318.782 391.907 316.407 396.396 309.237C405.169 295.236 386.855 284.855 376.052 281.756C375.533 281.62 375.127 281.688 374.789 281.869C375.037 281.304 375.307 280.738 375.533 280.173C375.668 280.467 375.894 280.716 376.277 280.783C376.976 280.919 377.743 281.055 378.533 281.191C386.111 283.859 393.982 286.008 401.651 288.18C401.651 289.243 402.328 290.328 403.681 290.419C414.913 291.097 415.725 307.428 424.995 312.698ZM434.197 277.436C425.085 286.008 413.176 286.868 401.831 282.706C401.222 282.48 400.704 282.751 400.388 283.181C399.463 282.909 398.516 282.638 397.591 282.367C408.237 281.643 418.229 277.956 419.537 267.009C420.71 257.17 412.815 249.887 403.681 245.929C407.493 246.291 411.282 246.562 414.981 246.607C415.251 246.607 415.499 246.562 415.725 246.449C426.055 246.992 429.235 253.166 436.61 258.866C439.903 261.4 443.399 263.164 447.143 264.498C442.294 268.253 438.776 273.138 434.197 277.436Z" fill="#E9E9E9"/>
</svg>
