<svg width="62" height="21" viewBox="0 0 62 21" fill="none" xmlns="http://www.w3.org/2000/svg">
<path d="M60.63 10.34C59.43 10.29 58.22 10.25 57.02 10.22C58.69 7.79001 59.3 4.57001 59.15 1.70001C59.12 1.05001 58.4 0.780012 57.92 1.19001C55.82 2.99001 54.44 5.31001 53.77 7.92001C44.52 -1.68999 29.53 -0.509988 17.18 1.05001C16.78 1.10001 16.4 1.36001 16.41 1.82001C16.46 4.15001 16.15 6.30001 15.56 8.49001C14.51 6.60001 13.41 4.74001 12.32 2.87001C12.14 2.55001 11.73 2.47001 11.42 2.63001C7.53001 4.70001 3.90999 7.22001 0.779992 10.33C0.339992 10.77 0.900008 11.39 1.39001 11.15C1.37001 11.49 1.53999 11.85 1.92999 11.95C1.92999 12.06 1.97 12.17 2.07 12.28C5.36 15.68 9.28001 18.14 13.7 19.47C13.95 19.68 14.3 19.78 14.64 19.71C15.77 20.01 16.93 20.26 18.12 20.41C20.58 20.72 24.37 21.18 26.71 20C29.32 18.68 29.91 15.57 32.07 13.62C32.59 13.15 31.92 12.28 31.32 12.65C29.96 13.5 29.36 14.45 28.34 15.55C25.83 18.23 23.33 19.31 19.66 19.03C18.75 18.96 17.85 18.83 16.96 18.67C19.31 16.96 21.49 14.87 23.31 12.61C23.37 12.53 23.41 12.45 23.44 12.37C26.79 12.41 30.15 12.46 33.5 12.48C32.84 14.71 32.15 16.91 31.3 19.08C31.11 19.56 31.58 19.92 31.98 19.97C34.41 20.27 37.79 20.28 41.16 19.77C41.33 19.82 41.51 19.81 41.67 19.69C46.33 18.9 50.88 17.07 52.76 13.52C54.06 15.39 55.65 16.82 57.46 18.24C57.88 18.57 58.46 18.47 58.65 17.93C59.3 15.98 58.72 13.87 57.41 12.38C58.48 12.36 59.56 12.35 60.63 12.33C61.92 12.32 61.91 10.4 60.63 10.34ZM57.66 3.42001C57.46 5.77001 56.62 7.75001 55.44 9.88001C55.19 9.55001 54.93 9.23001 54.67 8.93001C55.18 6.81001 56.19 4.97001 57.66 3.42001ZM11.5 4.10001C12.61 6.09001 13.71 8.08001 14.88 10.03C13.85 10.06 12.82 10.1 11.79 10.13C10.93 8.53001 9.81999 7.09001 8.49999 5.85001C9.46999 5.24001 10.47 4.65001 11.5 4.10001ZM7.66 6.40001C8.74 7.55001 9.64001 8.80001 10.39 10.18C7.69001 10.26 4.98 10.34 2.29 10.44C4.01 8.97001 5.8 7.63001 7.66 6.40001ZM14.46 16.81C14.32 17 14.28 17.17 14.28 17.34C14.14 17.54 14 17.73 13.86 17.93C9.98998 16.75 6.42999 14.74 3.30999 12.03C8.16999 12.14 13.03 12.23 17.9 12.31C16.76 13.81 15.61 15.31 14.46 16.81ZM16.35 9.99001C16.34 9.92001 16.32 9.86001 16.29 9.79001C16.28 9.77001 16.27 9.75001 16.25 9.73001C17.1 7.51001 17.17 3.67001 19.02 2.37001C20.23 1.52001 24.01 1.83001 25.52 1.72001C26.72 1.63001 27.93 1.56001 29.14 1.53001C29.1 1.61001 29.09 1.71001 29.12 1.83001C29.77 4.51001 30.77 7.32001 32.07 9.83001C26.83 9.83001 21.58 9.87001 16.35 9.99001ZM30.02 1.57001C30.01 1.54001 29.99 1.52001 29.97 1.50001C30.66 1.49001 31.34 1.49001 32.03 1.50001C34.67 1.56001 37.25 1.86001 39.72 2.43001C39.72 4.89001 39.68 7.37001 39.79 9.84001C37.78 9.82001 35.76 9.83001 33.75 9.83001C32.46 7.08001 31.16 4.40001 30.02 1.57001ZM32.92 18.66C33.62 16.63 34.16 14.6 34.49 12.49C38.15 12.51 41.81 12.51 45.47 12.5C44.09 14.33 42.81 16.24 41.53 18.14C38.66 18.81 35.82 18.92 32.92 18.66ZM43.28 17.68C44.61 15.98 45.95 14.27 47.14 12.49C48.62 12.48 50.09 12.48 51.57 12.47C50.26 15.2 46.34 16.8 43.28 17.68ZM43.22 9.87001C43.24 9.82001 43.27 9.78001 43.28 9.73001C43.69 7.72001 43.83 5.73001 43.66 3.69001C43.66 3.66001 43.64 3.64001 43.64 3.60001C47.28 4.97001 50.59 7.08001 53.39 10.1C50 9.99001 46.61 9.92001 43.22 9.87001ZM57.41 16.62C55.76 15.56 54.34 14.03 53.23 12.46C53.82 12.45 54.41 12.44 55.01 12.43C56.54 13.25 57.48 14.87 57.41 16.62Z" fill="#E9E9E9"/>
</svg>
