<svg width="113" height="114" viewBox="0 0 113 114" fill="none" xmlns="http://www.w3.org/2000/svg">
<g clip-path="url(#clip0_18_1045)">
<path d="M111.23 64.2099C102.03 60.6099 92.22 59.1499 82.52 60.3699C91.13 58.4899 99.39 55.6199 107.51 52.1699C107.91 52.7199 108.49 53.1499 109.14 53.3299C110.85 53.7999 112.73 52.5399 112.44 50.6799C112.27 49.5899 111.41 48.8999 110.46 48.7699C109.43 47.9999 107.84 48.6599 107.27 49.7299C107.14 49.9699 107.08 50.2199 107.04 50.4699C106.99 50.4899 106.94 50.4799 106.88 50.5099C99.46 54.0799 91.73 56.7499 83.8 58.8899C90.81 54.6699 95.8 47.5499 99.27 40.0499C99.6 39.3399 99.21 38.5099 98.37 38.4899C89.57 38.2499 80.98 40.7299 73.92 45.7799C79.14 38.7699 84.13 31.5699 89.21 24.4699C89.4 24.5899 89.6 24.6999 89.81 24.7799C91.94 25.6599 94.97 24.3999 93.91 21.7099C93.48 20.6099 92.43 19.7199 91.21 19.6899C90.73 19.6799 90.25 19.8199 89.84 20.0599C89.71 19.9399 89.52 19.8799 89.28 19.9499C88.29 20.2199 87.72 21.2299 87.76 22.2199C87.78 22.5899 87.88 22.9199 88.03 23.2199C87.95 23.2799 87.87 23.3399 87.8 23.4399C82.51 31.1399 77.08 38.7699 71.97 46.6099C73.63 40.9099 72.76 33.6199 71.81 28.7999C69.69 17.9999 62.85 8.94991 56.33 0.389914C55.97 -0.0800858 55.29 -0.170086 54.94 0.389914C48.44 10.8499 33.04 30.3899 37.85 44.5299C32.38 37.5699 27.24 30.5299 22.87 22.7899C22.78 22.6399 22.67 22.5399 22.55 22.4699C23.52 21.9599 24.15 20.9699 23.79 19.5999C23.14 17.0899 19.14 16.1999 18.21 18.8199C18.16 18.8799 18.11 18.9399 18.07 19.0099C17.38 20.0599 17.81 21.3799 18.74 22.1399C19.47 22.7299 20.44 22.9499 21.34 22.8499C21.2 23.0899 21.15 23.3799 21.33 23.6999C25.66 31.1999 30.68 38.4399 36.67 44.7399C31.26 40.8499 24.68 38.8599 18.07 37.0799C17.49 36.9199 16.82 37.3799 16.85 38.0099C17.21 45.8499 20.97 56.1999 28.05 60.9099C24.22 59.2099 20.38 57.5199 16.59 55.7399C15.07 55.0199 8.33 52.6199 6.94 51.2599C7.18 50.7499 7.24 50.1399 6.99 49.4199C6.25 47.2199 3.03 46.6599 1.55 47.8999C1.37 47.9399 1.18 47.9999 1.01 48.0899C-0.310003 48.8199 -0.240003 50.6399 0.579997 51.7099C1.62 53.0699 4.01 53.2699 5.6 52.4999C7.42 54.3799 12.23 55.5799 14.08 56.4199C17.79 58.0999 21.55 59.6999 25.36 61.1399C19.39 60.4399 13.37 60.6599 7.33 61.8699C6.66 61.9999 6.45 62.8099 6.73 63.3499C13.67 76.5699 27.71 84.1199 42.45 81.9599C42.17 84.5799 42.05 87.1999 42.02 89.6799C41.94 97.4299 45.43 103.4 51.47 105.8C50.19 106.01 48.97 106.59 47.98 107.45C47.2 108.12 45.44 109.9 46.33 111.02C47.11 112 49.27 111.27 50.19 110.87C51.01 110.51 51.79 109.99 52.42 109.35C52.47 109.72 52.56 110.07 52.7 110.4C53.34 111.94 54.8 112.88 56.43 113.06C59.27 113.37 61.96 110.82 61.81 108.08C63.75 110.07 66.34 111.14 69.21 111.12C69.82 111.12 70.05 110.51 69.84 110.02C68.94 107.92 67.08 106.21 64.91 105.44C67.92 103.82 69.86 101.03 71.05 97.7599C71.45 97.5799 71.75 97.1099 71.52 96.5999C71.5 96.5599 71.48 96.5299 71.47 96.4999C72.69 92.4099 72.86 87.7499 72.5 83.7599C72.4 82.6699 72.24 81.5999 72.05 80.5199C86.73 80.9899 100.72 75.7099 111.66 65.9499C112.31 65.3599 111.89 64.4699 111.23 64.2099ZM75.86 60.2999C76.57 58.5899 76.97 56.7499 76.46 55.0699C83.18 50.7599 89.75 46.2499 96.2 41.5399C91.71 50.1399 85.43 57.1599 75.86 60.2999ZM94.81 40.6099C88.61 45.1599 82.32 49.5899 75.94 53.8899C75.79 53.6399 75.62 53.3999 75.41 53.1699C73.92 51.4899 71.75 51.0099 69.66 51.3399C69.84 51.1199 69.99 50.8799 70.15 50.6399C77.3 44.6599 85.64 41.1099 94.81 40.6099ZM56.04 2.94991C56.07 2.83991 56.06 2.74991 56.05 2.65991C61.12 9.35991 66.21 16.3399 68.92 24.3599C71.35 31.5399 73.03 43.4799 68.38 50.3299C68.88 43.5999 63.73 37.8299 56.8 37.1999C56.4 37.1599 55.99 37.1499 55.58 37.1399C55.76 25.9699 53.38 13.8599 56.04 2.94991ZM53.86 5.02991C53.19 9.30991 53.35 13.6099 53.52 17.9899C53.77 24.3799 53.89 30.7999 54.47 37.1699C51.4 37.3299 48.15 38.3199 46.05 40.4499C43.58 42.9599 43.79 46.9699 44.19 50.4399C43.67 50.2299 43.13 50.0999 42.58 50.0099C32.41 35.8699 45.24 18.1499 53.86 5.02991ZM18.88 39.2699C26.65 41.3699 34.47 43.8499 39.86 50.0499C38.09 50.3599 36.44 51.2399 35.3 52.6499C35.26 52.6099 35.23 52.5699 35.18 52.5299C29.39 48.6799 24.27 43.7099 18.88 39.2999C18.89 39.2899 18.88 39.2799 18.88 39.2699ZM19.05 40.6599C21.64 43.0299 24.25 45.3699 26.87 47.6899C29.28 49.8199 31.65 52.1499 34.47 53.7399C34.51 53.7599 34.54 53.7599 34.57 53.7699C33.15 56.4999 33.62 60.0799 35.68 62.3299C25.94 59.0899 20.33 50.4599 19.05 40.6599ZM9.21 63.5699C16.98 62.1799 24.7 62.4499 32.33 64.3699C30.56 65.4399 29.3 66.9699 29.08 68.9899C22.53 67.0199 15.9 65.2299 9.25 63.6399C9.24 63.6199 9.23 63.5899 9.21 63.5699ZM9.95 64.7299C16.36 66.5599 22.74 68.4399 29.11 70.3999C29.18 70.9999 29.34 71.6299 29.59 72.2999C31.34 76.9299 37.46 79.9699 42.37 80.4399C29.18 81.4499 17.04 75.8499 9.95 64.7299ZM60 57.9599C59.95 58.0699 59.93 58.1699 59.91 58.2699C58.07 56.3999 56.41 54.3999 55.96 51.9499C57.18 51.6599 58.18 50.7699 57.78 49.3399C57.22 47.3399 54.2 46.8399 53.16 48.4799C52.95 48.6499 52.77 48.8599 52.65 49.1199C52.2 50.0399 52.64 51.0999 53.47 51.6299C53.67 51.7599 53.89 51.8499 54.13 51.9299C54.05 54.3299 53.42 56.4599 52.49 58.4599C51.88 57.7799 50.98 57.2199 50.03 56.7599C49.07 54.9999 48.7 52.7699 49.01 50.9499C49.53 47.8399 53.09 45.7599 56.13 45.5999C63.65 45.2099 62.14 53.7299 60 57.9599ZM69.25 58.5399C70.33 61.2799 67.92 63.6199 66.1 65.3799C65.45 64.3999 64.76 63.4399 64.03 62.5199C63.28 61.5799 62.35 60.6599 61.41 59.7399C62.52 57.0699 67.93 55.1899 69.25 58.5399ZM49.64 58.3399C50.1 58.8099 50.63 59.2099 51.23 59.4899C51.24 59.4999 51.26 59.4999 51.27 59.4999C51.38 59.6099 51.49 59.7299 51.57 59.8499C51.58 59.9399 51.62 60.0199 51.67 60.0999C50.51 62.1999 49.11 64.1899 47.78 66.2499C47.72 66.1599 47.64 66.0899 47.51 66.0399C44.66 64.9799 39.02 62.4699 41.3 58.3699C42.35 56.4799 44.91 56.7099 46.66 57.1699C47.42 57.3799 48.59 57.7899 49.64 58.3399ZM46.75 67.3899C46.84 67.4399 46.93 67.4599 47.01 67.4699C46.3 68.6299 45.64 69.8199 45.09 71.0599C44.29 72.8699 43.71 74.8199 43.26 76.8299C40.12 75.7999 37.42 73.6799 36.59 70.3099C35.06 64.0799 43.63 65.7799 46.75 67.3899ZM44.47 96.2899C44.16 95.2899 43.94 94.2199 43.8 93.0999C43.94 92.7499 44.1 92.4399 44.26 92.1199C44.89 92.6699 45.55 93.1999 46.22 93.7099C45.47 94.7299 44.97 95.8899 44.81 97.1899C44.69 96.8999 44.57 96.5999 44.47 96.2899ZM52.98 88.0999C53.12 88.4199 53.26 88.7499 53.4 89.0799C52.26 89.4199 51.13 89.8799 50.09 90.4599C49.66 89.3999 49.19 88.3199 48.63 87.3599C49.72 86.6899 50.9 86.1699 52.16 85.7999C52.14 85.8899 52.13 85.9899 52.16 86.0899C52.34 86.7799 52.69 87.4399 52.98 88.0999ZM53.2 85.5299C54.5 85.2399 55.86 85.0899 57.23 85.0799C57.22 85.5699 57.28 86.0599 57.3 86.5399C57.33 87.1599 57.37 87.7699 57.41 88.3899C56.59 88.4299 55.77 88.5299 54.95 88.6899C54.8 88.7199 54.65 88.7599 54.5 88.7899C54.17 87.6999 53.77 86.5599 53.26 85.6099C53.25 85.5799 53.23 85.5599 53.2 85.5299ZM49.1 91.0499C48.28 91.5899 47.53 92.2099 46.9 92.8999C46.25 92.2599 45.58 91.6299 44.89 91.0399C45.63 89.8899 46.52 88.9099 47.55 88.1099C47.98 89.1099 48.53 90.0999 49.1 91.0499ZM53.05 106.86C52.85 106.86 52.66 106.94 52.53 107.11C51.9 108.01 51.3 108.79 50.33 109.36C49.87 109.63 49.38 109.84 48.87 109.97C48.59 110.04 48.3 110.1 48.01 110.13C47.89 110.14 47.78 110.14 47.66 110.15C47.27 110.23 47.2 110.18 47.46 109.99C47.54 109.62 48.21 108.94 48.47 108.67C48.84 108.27 49.27 107.93 49.73 107.63C50.68 107.03 51.68 106.74 52.78 106.6C52.96 106.58 53.05 106.47 53.09 106.33C53.23 106.37 53.37 106.42 53.52 106.45C53.33 106.57 53.18 106.71 53.05 106.86ZM56.74 111.34C54.28 111.13 53.58 108.88 54.4 106.86C54.43 106.79 54.43 106.72 54.42 106.66C56.1 106.97 57.93 107.03 59.88 106.84C60.37 109.07 59.47 111.58 56.74 111.34ZM58.11 105.23C58.27 105.13 58.38 104.98 58.44 104.81C58.61 104.88 58.77 104.93 58.9 104.97C59.3 105.08 59.63 104.91 59.82 104.64C60 104.77 60.17 104.91 60.37 105.04C59.62 105.15 58.87 105.22 58.11 105.23ZM67.94 109.6C65.58 109.39 63.43 108.32 61.79 106.56C61.92 106.53 62.05 106.5 62.18 106.47C64.59 106.69 66.62 107.66 67.94 109.6ZM67.65 101.04C64.37 97.6899 59.79 96.0199 55.14 97.1599C53.11 97.6599 48.59 99.5099 48.41 102.08C47.43 101.28 46.57 100.35 45.87 99.2499C45.79 96.0299 47.54 93.7099 49.99 92.1899C50.24 92.2299 50.53 92.0899 50.58 91.8499C51.74 91.2199 53.02 90.7499 54.34 90.4299C54.42 90.4299 54.49 90.4099 54.56 90.3799C55.32 90.2099 56.09 90.0899 56.84 90.0199C62.43 89.5199 67.32 91.8899 69.87 96.8599C69.33 98.4199 68.6 99.8399 67.65 101.04ZM64.13 86.6599C63.76 87.4099 63.73 88.4099 63.79 89.3499C62.09 88.7099 60.27 88.3699 58.39 88.3499C58.43 87.7399 58.47 87.1299 58.49 86.5299C58.51 86.0599 58.57 85.5799 58.56 85.0999C62.18 85.2899 65.81 86.3799 68.69 88.1399C68.13 89.0699 67.65 90.4499 67.37 91.3799C66.59 90.7799 65.76 90.2499 64.88 89.8299C64.89 89.4899 64.9 89.1599 64.94 88.8199C65 88.2099 65.24 87.5699 65.19 86.9499C65.17 86.4299 64.4 86.1099 64.13 86.6599ZM70.47 94.6499C69.83 93.6799 69.07 92.8299 68.23 92.0799C68.46 91.5199 68.7 90.9499 68.97 90.4099C69.02 90.2999 69.49 89.3399 69.72 88.8599C69.75 88.8599 69.78 88.8599 69.81 88.8599C70.24 89.1699 70.65 89.4899 71.03 89.8299C70.97 91.4899 70.8 93.1199 70.47 94.6499ZM43.8 90.7499C43.73 90.7999 43.67 90.8499 43.62 90.9199C43.49 87.8399 43.82 84.5899 44.26 81.6099C44.67 81.4199 44.7 80.8199 44.43 80.4999C44.55 79.7399 44.68 78.9899 44.8 78.2799C45.79 72.6399 48.5 68.3799 51.49 63.6499C53.25 60.8599 54.65 58.0499 55.13 54.9499C56.09 56.7799 57.56 58.2599 59.23 59.9099C62.95 63.5699 65.89 67.6699 67.92 72.4799C69.51 76.2499 70.91 82.0699 71.04 87.7499C63.54 81.9899 48.21 81.3699 43.8 90.7499ZM70.97 75.7899C70.26 73.4499 69.35 71.1599 68.23 68.9899C67.88 68.2999 67.49 67.6299 67.09 66.9699C67.22 66.9699 67.35 66.9299 67.46 66.8099C69.9 64.1599 75.45 65.3599 75.51 69.3099C75.56 72.5599 72.85 73.7899 70.97 75.7899ZM71.96 77.9399C71.81 77.9299 71.68 77.9699 71.57 78.0399C71.51 77.7999 71.46 77.5499 71.39 77.3099C75.31 76.0899 78.69 70.7699 76.75 66.8099C75.55 64.3599 72.16 63.3499 69.48 64.1099C71.28 61.6199 72.27 58.5199 69.64 56.1299C67.85 54.5099 64.82 54.9199 62.65 56.3399C63.78 53.5099 64.28 50.4199 62.83 47.5799C61.33 44.6399 58.26 43.4299 55.06 43.9799C51.63 44.5799 47.84 46.8899 47.38 50.6099C47.18 52.2899 47.41 54.2699 48.12 55.9699C47.74 55.8399 47.38 55.7299 47.08 55.6499C44.81 55.0499 41.9 54.9899 40.31 57.0399C38.98 58.7599 39.17 61.2199 40.23 63.0099C40.53 63.5099 40.9 63.9399 41.3 64.3299C38.03 64.0099 34.87 64.8099 34.71 68.4499C34.5 73.0899 38.45 77.5299 43 78.0799C42.93 78.4699 42.88 78.8699 42.82 79.2599C39.25 78.8099 35.01 76.9699 32.63 74.3699C30.55 72.0999 29.63 68.8299 31.73 66.1499C32.24 65.5099 32.99 65.0599 33.82 64.7299C34.01 64.7799 34.21 64.8199 34.4 64.8799C35.01 65.0599 35.44 64.6599 35.57 64.1799C36.24 64.0099 36.89 63.8799 37.46 63.7399C37.79 63.6599 37.9 63.3999 37.86 63.1499C37.91 62.9799 37.89 62.7899 37.73 62.6399C35.38 60.3999 34.32 56.7899 36.34 53.9399C37.53 52.2599 39.32 51.5399 41.17 51.5399C41.49 51.7799 41.9 51.7799 42.22 51.6199C42.42 51.6499 42.62 51.6799 42.82 51.7199C43.14 51.9999 43.45 52.2799 43.8 52.5499C44.05 52.7399 44.31 52.4699 44.29 52.2099C44.33 52.2299 44.38 52.2499 44.42 52.2699C44.43 52.3399 44.44 52.3999 44.44 52.4699C44.52 53.1399 45.45 53.1899 45.53 52.5199C45.99 52.3199 46.28 51.7199 45.8 51.3399C45.72 51.2799 45.64 51.2299 45.56 51.1699C45.55 49.4299 45.44 47.6499 45.67 45.9499C46.36 40.8099 50.84 38.6999 55.41 38.7899C62.46 38.9299 68.1 44.7099 66.45 51.8999C66.39 52.1699 66.45 52.3999 66.58 52.5799C66.49 52.9299 66.8 53.3699 67.23 53.2499C69.5 52.6099 72.28 52.0899 74.1 54.0599C76.24 56.3699 74.52 59.6799 73.28 61.9399C72.82 62.7899 74 63.5299 74.55 62.8599C74.64 62.9299 74.75 62.9899 74.91 62.9899C79.77 63.1399 82.44 68.3999 81.04 72.7399C79.75 76.6999 75.75 78.1799 71.96 77.9399ZM78.52 78.4199C80.74 77.1099 82.43 74.9099 82.92 72.2399C82.98 71.9299 83.01 71.6099 83.03 71.2899C87.8 70.9499 92.55 70.3799 97.28 69.6399C99.06 69.3599 102.08 69.2399 104.71 68.7599C96.91 74.1499 87.96 77.4099 78.52 78.4199ZM108.9 65.5999C108.4 65.1999 107.53 65.7699 107.67 66.4799C107.62 66.1999 88.1 69.3899 83.05 70.1899C82.9 66.9099 81.1 63.5699 78.19 62.3499C88.68 61.0999 99.02 61.9599 108.97 65.5399C108.95 65.5599 108.93 65.5799 108.9 65.5999Z" fill="#E9E9E9"/>
<path d="M41.24 68.42C41.02 68.5 40.82 68.62 40.64 68.77C39.9 69.29 39.5 70.36 39.96 71.21C40.66 72.49 42.67 72.51 43.45 71.3C44.41 69.82 42.93 67.81 41.24 68.42Z" fill="#E9E9E9"/>
<path d="M46.63 58.9798C45.3 58.6598 44.19 60.0098 44.52 61.2698C44.58 61.4998 44.74 61.7098 44.95 61.8398C44.96 61.8498 44.96 61.8698 44.97 61.8798C45.71 62.7198 47.14 62.5998 47.74 61.6498C48.37 60.6598 47.74 59.2498 46.63 58.9798Z" fill="#E9E9E9"/>
<path d="M68.36 60.12C68.2 59.44 67.54 58.91 66.79 58.66C66.68 58.56 66.54 58.48 66.37 58.46C66.16 58.44 65.95 58.47 65.76 58.53C65.34 58.56 64.94 58.68 64.65 58.96C64.03 59.54 64.08 60.57 64.77 61.06C64.86 61.26 64.98 61.44 65.14 61.61C66.31 62.8 68.79 61.97 68.36 60.12Z" fill="#E9E9E9"/>
<path d="M74.72 69.1298C73.95 68.5698 72.57 68.2398 71.64 68.6198C71.56 68.5998 71.48 68.5998 71.4 68.5998C70.6 68.6498 70.28 69.5198 70.58 70.1798C70.61 70.2498 70.67 70.2998 70.71 70.3698C70.82 71.0898 71.43 71.6398 72.2 71.5798C72.47 71.5598 72.7 71.4598 72.9 71.3098C73.64 71.2898 74.31 71.0098 74.9 70.5498C75.41 70.1598 75.14 69.4298 74.72 69.1298Z" fill="#E9E9E9"/>
</g>
<defs>
<clipPath id="clip0_18_1045">
<rect width="112.46" height="113.07" fill="white"/>
</clipPath>
</defs>
</svg>
