<svg width="146" height="136" viewBox="0 0 146 136" fill="none" xmlns="http://www.w3.org/2000/svg">
<path d="M145.958 99.345C142.448 82.0374 129.715 68.5201 113.473 64.2117C120.211 63.6787 126.949 63.1161 133.672 62.4202C133.732 63.7971 134.579 65.0408 135.978 65.5294C137.629 66.1216 139.533 65.6182 140.529 64.1525C140.797 63.7675 140.975 63.3234 141.079 62.8792C141.853 61.3691 141.466 59.4592 139.904 58.5264C139.785 57.9342 139.235 57.4012 138.536 57.5937C138.417 57.6233 138.298 57.6677 138.179 57.6973C137.034 57.342 135.769 57.5345 134.877 58.4968C134.341 59.089 134.059 59.7997 133.984 60.54C126.726 61.221 119.482 62.0649 112.238 62.9384C125.595 58.9706 136.766 49.0213 141.883 35.5336C142.15 34.8377 141.585 33.9346 140.886 33.7865C126.101 30.6478 111.316 33.1943 98.9108 41.13C99.952 37.2066 104.623 34.4528 107.374 31.7138C109.739 29.3449 112.06 26.828 114.038 24.089C115.392 24.9033 117.221 24.6072 118.322 23.5116C118.337 23.4968 118.337 23.482 118.352 23.482C119.303 23.3635 119.646 22.4012 119.348 21.6017C119.571 21.1427 119.72 20.6541 119.69 20.1211C119.616 18.2852 117.727 17.1896 116.031 17.2193C114.38 17.2489 112.833 18.3297 112.402 19.9287C112.179 20.7578 112.268 21.6609 112.61 22.4456C109.68 25.9397 106.883 29.4633 103.581 32.6465C102.585 33.6089 101.514 34.512 100.532 35.4892C103.656 24.9329 101.707 13.2218 99.3273 2.0733C99.1488 1.19978 97.8845 0.622367 97.1259 1.18497C85.881 9.62407 72.0925 21.5424 70.6051 35.726C69.6382 29.3449 68.0913 22.949 66.9163 16.5974C67.3179 16.3902 67.7046 16.1237 68.0318 15.7979C68.0467 15.7831 68.0765 15.7535 68.0913 15.7239C68.6566 15.5166 68.9243 15.0132 68.9392 14.4654C69.1325 14.0361 69.2515 13.5771 69.192 13.133C69.1325 12.674 68.8648 12.2446 68.5078 11.8893C68.3739 11.3563 68.0913 10.8381 67.6154 10.3643C65.1462 7.93625 60.7583 9.50563 60.907 13.1182C60.9814 14.7616 61.9482 16.3309 63.5547 16.8935C64.0158 17.0564 64.4769 17.1156 64.9529 17.1008C65.8453 23.7929 67.1245 30.8551 69.6085 37.0733C67.3922 33.8161 64.7 30.8551 61.5318 28.3974C53.0237 21.7941 42.2398 19.825 32.3038 16.3013C31.337 15.9608 30.2512 16.8639 30.2809 17.8411C30.5635 28.5306 31.1585 39.6199 38.0453 48.3847C39.6666 50.4426 41.511 52.2193 43.4893 53.7887C37.9709 51.9232 32.3782 50.2798 26.7111 48.9769C27.3209 48.0146 27.6333 46.8893 27.2912 45.8085C26.6516 43.7802 23.8998 42.8919 21.9959 42.7142C19.9433 42.5217 17.7121 43.4989 17.0428 45.5569C16.7304 46.5192 16.8643 47.4816 17.2956 48.2959C17.4146 49.125 17.7865 49.9393 18.3815 50.5463C19.9433 52.1453 22.5165 52.1897 24.4056 51.1533C24.7625 50.9608 25.1195 50.6943 25.4616 50.3982C31.6791 52.3081 37.8668 54.2476 43.995 56.3796C28.9273 55.284 12.521 60.6288 0.800065 68.7866C0.041477 69.3196 -0.360129 70.5632 0.472831 71.2591C15.481 83.7104 32.0658 85.1022 49.0522 80.32C41.0648 82.9406 33.2111 86.2866 25.893 90.4321C25.8037 90.3433 25.7442 90.2397 25.655 90.1508C25.3575 89.8991 25.0303 89.7067 24.6882 89.5438C24.6287 89.1589 24.3758 88.8035 23.9147 88.6851C21.044 87.93 17.9204 90.1212 18.0691 93.1859C18.2327 96.2655 21.8026 98.7232 24.6435 97.0946C26.5475 96.0138 27.3953 93.5561 26.6367 91.6166C33.3747 88.5666 40.1277 85.7536 47.0888 83.2959C36.2901 93.0675 28.5406 105.859 24.5692 120.013C24.3163 120.917 25.0303 121.805 25.9525 121.82C38.2089 121.982 51.5809 121.879 62.0077 114.491C65.0123 112.374 67.422 109.768 69.2813 106.837C67.541 112.418 65.7709 117.985 64.0455 123.567C62.5878 123.715 61.2492 124.84 60.4608 126.276C59.3155 127.416 58.9734 129.296 59.7617 130.747C60.2823 131.724 61.145 132.228 62.097 132.391C62.4986 132.524 62.9597 132.554 63.51 132.435C63.5695 132.42 63.5993 132.391 63.6588 132.376C63.7778 132.346 63.8968 132.317 64.0158 132.272C65.7263 131.784 67.1096 130.333 66.589 128.497C66.5295 127.801 66.232 127.105 65.6222 126.483C65.3842 126.232 65.1016 126.024 64.8041 125.847C64.8785 125.639 64.9677 125.432 65.0421 125.21C65.3545 124.944 65.5478 124.485 65.4586 124.114C67.7938 117.896 69.8911 111.604 71.8843 105.267C75.9896 120.783 91.3993 131.236 106.809 135.944C107.702 136.211 108.52 135.485 108.564 134.612C108.951 126.069 109.293 117.186 106.036 109.087C103.566 102.943 99.8182 97.0057 95.8021 91.5573C96.8136 92.2976 97.9143 92.9639 99.0298 93.6005C102.897 98.1606 107.255 102.528 111.584 106.57C111.108 107.769 111.212 109.131 111.896 110.271C113.8 113.469 118.813 112.448 119.125 108.672C119.259 107.014 118.203 105.8 116.864 105.312C117.162 104.867 117.043 104.142 116.433 104.053C114.96 103.816 113.666 104.083 112.625 105.075C109.724 102.025 106.794 98.9304 103.79 95.9101C116.552 101.196 133.151 101.551 144.575 101.107C145.542 101.122 146.137 100.278 145.958 99.345ZM117.935 35.9481C121.981 35.1486 126.116 34.8525 130.221 35.045C131.158 35.0894 137.346 34.8673 137.867 35.9925C138.566 37.4731 136.796 39.9604 136.141 41.0856C129.18 53.0336 116.507 60.7176 102.912 62.0649C109.427 58.3487 115.258 52.5154 110.067 45.8974C107.107 42.122 103.031 42.1368 99.0596 43.8394C104.756 40.0196 111.108 37.3102 117.935 35.9481ZM109.04 48.8881C111.628 55.5209 103.031 59.6516 96.9326 62.2426C96.5607 62.2278 96.1889 62.2278 95.817 62.213C95.0733 62.1685 94.6865 62.6571 94.6122 63.2197C94.3593 63.3234 94.1213 63.427 93.8982 63.5306C93.3776 61.754 92.5149 60.1698 91.4142 58.8225C94.0916 57.0755 96.7689 55.3432 99.4166 53.5518C99.6099 53.8923 99.8777 54.2032 100.235 54.4697C100.502 54.6622 100.83 54.6918 101.157 54.6326C102.912 55.1508 104.563 53.7739 104.385 51.9232C104.206 50.0577 102.243 48.7104 100.502 49.7764C99.8925 50.1465 99.4761 50.7388 99.2678 51.405C99.253 51.405 99.2529 51.405 99.2381 51.4198C96.055 53.1372 92.9909 55.1952 90.0458 57.3716C89.3764 56.7646 88.6476 56.2168 87.8741 55.743C87.9485 55.6986 88.008 55.6394 88.0675 55.5505C91.2357 50.946 105.054 38.6871 109.04 48.8881ZM50.5099 71.3183C51.0008 71.5108 51.4173 71.3479 51.6999 71.0222C52.6072 70.8741 53.4402 70.2375 53.7674 69.3492C56.653 69.3048 59.6279 69.1863 62.6325 68.9346C62.6473 69.0235 62.6325 69.1123 62.6473 69.2011C62.811 70.4448 63.1531 71.6144 63.6142 72.7248C58.542 74.7828 40.3657 79.9055 42.9389 68.6829C44.1437 63.4566 50.1083 61.9613 55.8795 61.754C56.7423 61.9761 57.6198 62.213 58.5123 62.4647C59.1221 62.6423 59.6427 62.287 59.8956 61.7984C61.3087 61.8724 62.6325 62.0057 63.7629 62.1389C63.1233 63.4714 62.7366 64.9372 62.6176 66.4917C59.6427 66.8767 56.6828 67.3949 53.8418 67.9575C53.3955 66.4177 51.3429 65.559 49.9001 66.4769C49.0671 67.0099 48.6655 67.9871 48.7548 68.9494C48.8291 70.0895 49.4687 70.8889 50.5099 71.3183ZM64.8934 75.0493C65.5924 76.0857 66.4403 77.0036 67.3625 77.8475C65.4586 80.3348 63.6439 82.8962 61.9036 85.4279C61.5913 85.4131 61.2789 85.4131 60.9665 85.4871C60.6542 85.3983 60.2972 85.4575 60.0295 85.7388C59.7469 86.0349 59.5535 86.405 59.4345 86.7752C59.0031 87.8856 59.4494 89.3365 60.5054 89.6918C60.5501 89.7215 60.5798 89.7511 60.6244 89.7807C62.3499 90.6986 64.4918 89.2625 64.5364 87.397C64.5513 86.7011 64.1645 86.257 63.629 85.9461C65.5032 83.7845 67.3922 81.5637 69.192 79.2836C70.8431 80.3792 72.6875 81.2083 74.6063 81.6969C72.985 84.9097 71.0811 87.9152 68.6417 90.595C67.6302 91.7202 66.5444 92.7862 65.414 93.793C64.343 94.7405 63.2126 95.614 62.0226 96.4135C60.2228 98.1013 58.5272 97.9681 56.9356 96.0138C54.645 95.5252 53.7079 94.1779 54.1244 92.0015C54.2136 90.6986 54.4367 89.4402 54.7937 88.1965C55.2548 86.5087 55.9688 84.8801 56.8315 83.3551C58.8544 79.8462 61.621 77.3441 64.8934 75.0493ZM84.1853 69.9562C86.1933 71.2591 88.246 72.5027 90.3581 73.6724C88.722 76.3077 86.1041 78.2621 83.1292 79.2688C82.7425 76.7519 82.2963 74.2498 81.8352 71.7625C82.7276 71.3331 83.5457 70.7261 84.1853 69.9562ZM80.8535 68.8014C80.3477 68.5793 79.6635 68.831 79.366 69.364C78.5628 69.4972 77.715 69.438 76.9267 69.1567C74.3237 68.2536 73.1932 65.3813 75.2459 63.279C76.1532 62.361 77.2093 62.0057 78.3397 61.7836C78.6521 62.3906 79.3214 62.8644 80.0949 62.6719C82.7722 62.0205 83.1292 65.6922 82.2368 67.3356C81.9095 67.9871 81.4187 68.4609 80.8535 68.8014ZM84.9588 68.831C85.3901 68.0611 85.7025 67.1876 85.8215 66.24C85.9702 65.1 85.7769 63.9452 85.3455 62.9088C86.6693 61.9761 88.008 61.0581 89.3616 60.1698C91.1316 62.1241 92.2025 64.7299 92.1133 67.839C92.0687 69.3048 91.7712 70.6669 91.2506 71.9253C89.1533 70.9186 87.056 69.8822 84.9588 68.831ZM84.572 61.5615C83.5606 60.1994 82.0285 59.3407 80.2734 59.548C80.7642 58.4672 81.2699 57.3716 81.7459 56.2464C84.0663 56.5721 86.238 57.49 87.9782 58.8817C86.8329 59.7553 85.7025 60.6584 84.572 61.5615ZM82.7425 53.8331C83.9473 50.798 85.0034 47.6592 85.5835 44.5945C85.5835 44.5501 85.5835 44.5205 85.5835 44.4909C86.6991 44.4168 87.7849 43.5729 87.9187 42.3885C88.1419 40.4638 85.8363 39.1017 84.1853 40.0196C82.5938 40.8931 82.5938 43.1436 83.8729 44.2244C82.6533 47.2299 81.6864 50.4278 80.7791 53.6258C79.6189 53.5814 78.429 53.6702 77.2539 53.9071C77.0754 53.9219 76.8969 53.9367 76.7333 53.9515C76.3466 47.6 78.1315 37.7544 85.0629 35.0302C92.8421 31.9655 93.0355 42.2404 90.9234 46.6673C89.5549 49.5247 87.5171 51.9972 86 54.7658C84.9439 54.3217 83.8581 54.0108 82.7425 53.8331ZM76.7928 56.3944C77.8935 56.1723 78.9942 56.0835 80.08 56.1131C79.7528 57.268 79.4404 58.4228 79.1132 59.5628C77.7596 59.1779 76.2127 59.5184 74.8591 60.2438C74.7996 60.1106 74.7104 59.9773 74.5765 59.8589C73.5204 59.0002 72.4792 58.0971 71.438 57.2087C72.6875 56.5277 74.041 55.9947 75.4244 55.6097C75.6028 56.1279 76.0937 56.5425 76.7928 56.3944ZM73.0593 61.3691C73.0891 61.3987 73.1188 61.3987 73.1635 61.4283C72.5685 61.9613 72.0776 62.5683 71.7504 63.1753C71.2744 64.0636 71.0811 64.9372 71.0811 65.7959C69.0135 65.8699 66.9163 66.018 64.7892 66.2548C65.176 62.894 67.0353 60.2883 69.5639 58.408C70.7389 59.3851 71.914 60.3771 73.0593 61.3691ZM71.4232 67.765C71.8396 68.8606 72.5536 69.8526 73.4907 70.6373C73.4163 70.6817 73.3419 70.7261 73.2825 70.7853C71.7058 72.4731 70.1737 74.2794 68.7012 76.1301C66.5742 74.1906 65.0867 71.644 64.7744 68.7125C67.0353 68.4757 69.2664 68.1647 71.4232 67.765ZM70.5456 77.5514C71.9735 75.6563 73.3568 73.7464 74.5914 71.7921C74.6509 71.6884 74.6955 71.5848 74.7104 71.4812C75.5582 71.9697 76.5102 72.3103 77.4919 72.4435C78.2356 72.5472 78.9793 72.5324 79.6933 72.4287C80.1395 74.8864 80.6006 77.3441 81.0766 79.787C80.0205 79.9795 78.9347 80.0683 77.8489 80.0091C75.2756 79.861 72.7172 78.9875 70.5456 77.5514ZM76.5845 83.1627C76.7928 82.7925 76.9713 82.4372 77.12 82.1411C78.2356 82.2595 79.3512 82.2743 80.4519 82.1559C80.794 82.1263 81.1361 82.0522 81.4782 81.993C81.9988 84.7024 82.5491 87.397 83.1144 90.0916C83.0697 90.1212 83.0102 90.136 82.9656 90.1656C81.4336 91.1872 81.5972 93.6745 83.1887 94.5332C83.5457 94.7257 83.9622 94.7257 84.3192 94.6073C85.6281 94.6073 86.9222 93.5265 86.8627 92.1199C86.8181 90.8319 85.6727 89.9139 84.4679 89.8103C84.1853 87.0565 83.8432 84.2879 83.4416 81.534C84.8844 81.0899 86.2677 80.4829 87.5171 79.6686C87.5171 79.6834 87.532 79.6834 87.532 79.6982C87.1007 80.0239 86.8478 80.5865 87.1453 81.1935C89.0195 84.9689 91.2208 89.1737 90.9234 93.5413C90.6259 97.9385 87.6956 102.247 82.7722 101.64C77.6257 101.003 75.1417 95.8509 75.2607 91.1724C75.3649 88.389 76.3763 85.872 76.5845 83.1627ZM88.7963 78.7506C90.2094 77.6254 91.4142 76.2781 92.3513 74.7532C95.1179 76.2041 97.944 77.5218 100.8 78.6914C100.83 78.7951 100.844 78.8987 100.889 79.0171C101.068 79.4169 101.335 79.7426 101.663 79.9795C102.51 80.927 103.998 81.2379 105.218 80.927C107.136 80.4533 107.954 78.2769 106.526 76.7963C105.634 75.8784 104.563 75.7599 103.522 76.0412C103.433 75.9968 103.328 75.9524 103.21 75.9524C102.496 75.8932 101.945 76.2485 101.558 76.7815C98.7918 75.5082 96.0252 74.235 93.2884 72.9321C94.2106 70.8001 94.6419 68.4312 94.3742 65.9439C94.3742 65.9143 94.3742 65.8995 94.3593 65.8699C101.484 67.6021 115.466 72.251 109.412 82.4076C104.474 90.7282 93.6007 83.9177 88.7963 78.7506ZM96.9326 5.064C99.6694 17.8263 101.886 31.8914 94.4337 43.1732C94.4932 42.7882 94.5676 42.4033 94.5973 42.0035C94.9245 37.7248 92.7231 33.0018 88.0377 32.2912C83.6498 31.6249 80.0651 35.7112 77.9679 39.0129C76.2424 41.7222 75.1864 44.8166 74.8889 47.9701C74.517 46.7413 74.0708 45.5272 73.5948 44.3428C70.4415 27.4942 84.0217 14.88 96.9326 5.064ZM74.5914 54.2476C72.9552 54.5734 71.3785 55.1508 69.9506 55.9059C68.0467 54.2476 66.1279 52.619 64.1496 51.0793C64.2835 50.872 64.4025 50.6351 64.462 50.3834C64.9529 48.3995 62.9151 47.0374 61.1302 47.6296C60.208 47.9405 59.2858 48.8437 59.5684 49.88C59.6725 50.2502 59.8807 50.5315 60.1336 50.7239C60.1782 50.9164 60.2526 51.1089 60.3567 51.2866C60.9219 52.2489 61.9185 52.4266 62.7961 52.1305C64.4471 53.8627 66.2172 55.5061 68.0467 57.0903C66.7378 58.0526 65.5776 59.1927 64.6851 60.5103C59.3155 57.7713 49.6621 50.2798 55.2548 43.9431C58.4825 40.2861 64.2984 42.4181 67.5856 44.7722C70.9026 47.1558 73.1188 50.4723 74.5914 54.2476ZM39.384 45.1127C34.4011 37.6656 33.7764 28.7231 33.5532 20.0323C41.2879 22.3715 49.4538 24.237 56.3555 28.4418C62.7961 32.3652 67.3327 37.9469 70.3968 44.4909C65.7114 39.9604 59.3899 37.2806 54.0798 41.9147C48.5019 46.7857 52.2948 53.9515 57.6496 58.3636C50.4058 55.8318 43.6826 51.5382 39.384 45.1127ZM4.28065 70.2819C11.5988 65.6478 19.9581 62.9977 28.3472 60.9397C36.2157 59.015 42.8943 59.1038 49.9596 60.4215C44.7685 61.5171 40.4549 64.2857 40.3062 69.971C40.1425 75.7599 44.2627 77.6846 49.2605 77.8475C33.4491 81.4452 18.1881 80.9566 4.28065 70.2819ZM71.8992 93.0971C71.4678 93.0675 71.0067 93.334 70.9472 93.8966C70.8431 95.0662 70.7984 96.2211 70.8133 97.3611C68.5078 104.586 64.0455 110.745 56.7125 114.447C47.8474 118.903 37.6437 119.007 27.8861 118.977C32.9583 101.803 43.8165 87.782 58.661 77.8475C53.0534 83.3699 48.5316 92.2088 53.7376 98.0421C59.3304 104.305 67.2584 96.6948 72.4495 89.6178C72.3156 90.8023 72.1223 91.9571 71.8992 93.0971ZM103.477 110.331C106.274 117.511 106.199 125.195 105.872 132.776C89.3764 127.283 75.2161 115.957 72.9701 98.3974C73.223 97.4055 73.4461 96.3839 73.6097 95.3623C73.7436 95.9694 73.9072 96.5764 74.16 97.1834C75.8557 101.477 80.3329 104.69 85.0778 103.964C89.1533 103.342 91.9051 99.9224 92.8868 96.1026C93.1842 94.933 93.3032 93.7781 93.2884 92.6233C97.2895 98.0865 101.082 104.186 103.477 110.331ZM114.023 95.5104C105.842 93.5857 97.1706 90.9799 91.9943 84.1842C98.0035 88.8035 106.69 91.2464 111.212 84.1398C113.964 79.8018 113.577 74.7976 110.364 70.8297C107.85 67.7354 104.295 66.0032 100.532 64.8631C101.127 64.8483 101.722 64.7891 102.317 64.7447C121.877 66.2104 138.015 78.8691 142.745 98.3382C133.077 98.5603 123.483 97.7312 114.023 95.5104Z" fill="#E9E9E9"/>
</svg>
