<svg width="75" height="45" viewBox="0 0 75 45" fill="none" xmlns="http://www.w3.org/2000/svg">
<path d="M56.9337 0.200195C66.7275 0.200257 74.6671 8.13981 74.6671 17.9336C74.6671 27.7273 66.7274 35.6669 56.9337 35.667C56.6028 35.667 56.2739 35.6566 55.9474 35.6387C55.8299 37.0055 56.7949 40.3295 61.6007 45C48.0892 41.4511 41.8126 29.7056 40.2345 23.9121C39.5656 22.0441 39.2003 20.0316 39.2003 17.9336C39.2003 8.13977 47.1399 0.200195 56.9337 0.200195Z" fill="white"/>
<path d="M17.7338 0.200195C27.5275 0.200257 35.4672 8.13981 35.4672 17.9336C35.4671 27.7273 27.5275 35.6669 17.7338 35.667C17.4028 35.667 17.0739 35.6566 16.7474 35.6387C16.6299 37.0055 17.5949 40.3295 22.4008 45C8.88928 41.4511 2.61267 29.7056 1.03455 23.9121C0.365693 22.0441 0.000379461 20.0316 0.000366211 17.9336C0.000366211 8.13977 7.93994 0.200195 17.7338 0.200195Z" fill="white"/>
</svg>
